<svg width="125" height="80" viewBox="0 0 125 80" fill="none" xmlns="http://www.w3.org/2000/svg">
<g filter="url(#filter0_d_90_21)">
<path d="M13.686 0.636719H16.1743L17.6447 0.806379L19.0585 1.08915L20.8117 1.54158L22.169 1.994L23.6394 2.61609L24.9401 3.29474L25.845 3.86027L26.8064 4.59547L27.5981 5.27411L28.4464 6.12241L28.9554 6.7445L29.521 7.4797L30.3127 8.72388L30.9913 9.96805L31.7831 11.7212L32.5748 13.7571L33.5928 16.4152L34.2715 18.0552L35.1198 19.9215H35.2894L35.9681 18.6773L36.5336 17.829L36.9295 17.2069L37.6647 16.1889L38.2302 15.4537L38.8523 14.7186L39.3613 14.0965L40.0399 13.4178L40.3792 13.0219L40.8317 12.6261L41.5103 11.9474L42.1324 11.4384L42.8676 10.8164L43.9987 9.96805L45.3559 9.0632L46.3739 8.44111L47.4484 7.81902L48.3533 7.36659L49.9368 6.63139L51.4637 6.00931L53.4431 5.33066L55.479 4.76513L56.9494 4.42581L58.8722 4.08648L61.6999 3.74716L64.7538 3.4644L66.6201 3.35129H69.6174L71.823 3.52095L73.5762 3.74716L75.6121 4.14304L77.5349 4.65202L79.5708 5.33066L81.0978 5.95275L82.7944 6.7445L84.0386 7.42314L85.3393 8.21489L86.1876 8.78043L87.2621 9.51562L88.0539 10.1377L88.9587 10.8729L89.7505 11.5516L91.1078 12.7957L92.4085 14.0965L92.8044 14.5489L93.4265 15.2275L93.9354 15.8496L94.6141 16.6414L95.1796 17.3766L95.9714 18.4511L96.7066 19.5256L97.1024 20.0911L97.7245 21.0525L98.6859 22.636L99.4211 23.9368L100.1 25.2375L100.665 26.312L101.401 27.8955L102.249 29.8183L103.154 32.137L103.889 34.2295L104.624 36.5482L105.02 38.0186L105.076 38.3579V38.9235L104.963 39.7152L106.547 40.5635L107.904 41.2987L109.601 42.2036L110.845 42.8822L112.428 43.7305L113.786 44.4657L114.634 45.0312L115.086 45.4837L115.482 46.1058L115.822 46.841V48.481L115.426 49.3859L114.917 50.0645L114.464 50.4604L113.503 50.9694L111.863 51.648L109.884 52.6094L106.83 54.1364L105.755 54.7019L104.398 55.3805L102.814 56.1157L101.118 56.8509L99.4777 57.473L97.5549 58.0951L96.9893 58.2648L97.1024 61.5449L97.2156 63.4677V65.1078L96.9328 66.5216L96.5935 67.4265L96.0845 68.3879L95.3493 69.3493L94.7272 69.9714L93.7658 70.65L92.9175 71.1024L91.7299 71.4983L91.2209 71.6114L90.5988 71.668H83.8689L82.9641 71.5549L81.7764 71.159L80.7019 70.5935L79.9667 70.0279L79.4012 69.5189L78.9488 69.0099L78.4398 68.2748L77.8742 67.2002L77.5349 66.1257L77.3653 65.2774V63.7505L77.648 62.3366L78.2701 60.1876L78.3267 59.6221L78.0439 59.5655L73.9155 59.3959L70.1264 59.1131L66.5635 58.7172L63.7924 58.3213L61.2475 57.8689L58.9288 57.3599L57.4584 56.964L54.4045 56.0592L51.8031 55.2109L49.8237 54.4757H49.7106L49.9368 63.7505V64.5988L49.8237 65.7298L49.5975 66.6913L49.2016 67.6527L48.7492 68.4444L48.1271 69.2362L47.7878 69.632L47.1657 70.141L46.4305 70.65L45.5822 71.1024L44.7904 71.3852L43.7159 71.6114L43.0373 71.668H36.3074L35.2894 71.5549L34.2715 71.2721L33.3666 70.8762L32.4617 70.3107L31.6134 69.5755L31.0479 68.9534L30.4824 68.1051L30.0299 67.2002L29.6906 66.1823L29.521 65.334L29.4644 64.4291L29.5775 63.2415L30.9913 54.7585L31.161 53.5143L31.2176 52.666V51.3087L31.1045 50.0645L30.8782 48.7072L30.5955 47.5762L30.143 46.2189L29.521 44.8616L28.8989 43.7305L28.3333 42.8822L27.8243 42.2036L27.1457 41.4118L26.5236 40.7332L25.6753 39.9414L25.0532 39.4324L24.2615 38.7538L22.678 37.5096L21.66 36.7179L20.6986 35.9827L19.6806 35.1909L18.6061 34.3992L17.4185 33.4943L16.344 32.7026L15.6653 32.1936L14.5908 31.4018L13.5729 30.6667L11.4238 29.0832L9.84032 27.9521L6.78643 25.7465L5.20293 24.6154L4.18496 23.8802L2.26214 22.5229L1.41384 21.9009L0.735196 21.2788L0.339321 20.6567L0.0565536 19.978L0 19.8084V17.7724L0.452428 14.9448L0.848303 13.1916L1.35729 11.495L1.92282 9.96805L2.54491 8.61077L3.167 7.4797L3.90219 6.34863L4.63739 5.38722L5.20293 4.76513L5.5988 4.3127L6.334 3.63406L7.06919 3.06852L7.9175 2.50299L8.93546 1.93745L9.89687 1.48502L11.141 1.08915L12.3852 0.806379L13.686 0.636719Z" fill="#B3E995"/>
<path d="M66.6201 3.35132H69.6174L71.823 3.52098L73.5761 3.74719L75.6121 4.14307L77.5349 4.65205L79.5708 5.33069L81.0978 5.95278L82.7944 6.74453L84.0386 7.42317L85.3393 8.21492L86.1876 8.78046L87.2621 9.51566L88.0539 10.1377L88.9587 10.8729L89.7505 11.5516L91.1077 12.7958L92.4085 14.0965L92.8044 14.5489L93.4264 15.2276L93.9354 15.8497L94.6141 16.6414L95.1796 17.3766L95.9713 18.4511L96.7065 19.5256L97.1024 20.0912L97.7245 21.0526L98.6859 22.6361L99.4211 23.9368L100.1 25.2375L100.665 26.3121L101.4 27.8956L102.249 29.8184L103.154 32.1371L103.889 34.2296L104.624 36.5482L105.02 38.0186L105.076 38.358V38.9235L104.963 39.7152L104.511 40.6201L103.945 41.2422L103.38 41.6381L102.758 41.9208L101.909 42.0905L96.8762 42.4864L90.7684 42.9388H78.5529L75.5555 42.8257L71.8795 42.5429L68.5429 42.1471L67.4684 41.9774L65.2062 41.5815L63.34 41.1856L60.3992 40.4504L58.3067 39.8284L56.8929 39.3194L55.0831 38.6973L52.9907 37.9055L50.5589 36.8876L48.9754 36.1524L47.7312 35.5868L46.6567 35.0213L45.4125 34.3992L44.1683 33.7206L42.5283 32.8157L41.0013 31.9109L39.644 31.1191L38.5695 30.4405L37.2122 29.5922L35.6853 28.5742L35.0632 28.1783L34.4976 27.7259L33.9887 27.2169L33.5928 26.5383L33.3666 25.8031V24.5589L33.7059 23.4844L34.2714 22.0705L34.9501 20.5436L35.5156 19.4691L36.0811 18.5077L36.5901 17.7159L37.2122 16.8111L38.004 15.7365L38.5129 15.1145L39.135 14.3793L39.644 13.8137L40.0399 13.4178L40.3792 13.022L40.8316 12.6261L41.5103 11.9475L42.1324 11.4385L42.8676 10.8164L43.9986 9.96808L45.3559 9.06323L46.3739 8.44114L47.4484 7.81905L48.3533 7.36662L49.9368 6.63142L51.4637 6.00934L53.4431 5.33069L55.479 4.76516L56.9494 4.42584L58.8722 4.08651L61.6999 3.74719L64.7538 3.46443L66.6201 3.35132Z" fill="#773B41"/>
<path d="M57.9674 39.7153L58.4764 39.8284L61.2475 40.6202L63.5662 41.1857L65.7718 41.6382L67.4684 41.9209L68.9954 42.1471L71.8796 42.4865L75.5556 42.7692L78.5529 42.8823H90.7685L99.8736 42.2037L101.91 42.034L102.758 41.8644L103.663 41.4119L104.228 40.903L104.568 40.394L104.907 39.7719L105.19 39.8284L106.434 40.5071L107.904 41.2988L109.601 42.2037L110.845 42.8823L112.429 43.7306L113.786 44.4658L114.634 45.0314L115.087 45.4838L115.482 46.1059L115.822 46.8411V48.4811L115.426 49.386L114.917 50.0646L114.464 50.4605L113.503 50.9695L111.863 51.6481L109.884 52.6095L106.83 54.1365L105.755 54.702L104.398 55.3807L102.814 56.1159L101.118 56.8511L99.4777 57.4731L97.5549 58.0952L96.9894 58.2649L97.1025 61.545L97.2156 63.4678V65.1079L96.9328 66.5217L96.5935 67.4266L96.0845 68.388L95.3493 69.3494L94.7272 69.9715L93.7658 70.6501L92.9175 71.1026L91.7299 71.4984L91.2209 71.6115L90.5988 71.6681H83.869L82.9641 71.555L81.7765 71.1591L80.702 70.5936L79.9668 70.028L79.4012 69.5191L78.9488 69.0101L78.4398 68.2749L77.8743 67.2004L77.535 66.1258L77.3653 65.2775V63.7506L77.6481 62.3368L78.2702 60.1877L78.3267 59.6222L78.044 59.5656L73.9155 59.396L70.1265 59.1132L66.5636 58.7173L63.7925 58.3214L61.2475 57.869L58.9289 57.36L58.024 57.1338L57.9109 56.7945V55.7765L57.9674 53.571V44.3527L57.9109 41.1292V39.7719L57.9674 39.7153Z" fill="#8CC783"/>
<path d="M85.9048 8.72388L86.1875 8.78043L87.2621 9.51563L88.0538 10.1377L88.9587 10.8729L89.7504 11.5516L91.1077 12.7957L92.4084 14.0965L92.8043 14.5489L93.4264 15.2275L93.9354 15.8496L94.614 16.6414L95.1796 17.3766L95.9713 18.4511L96.7065 19.5256L97.1024 20.0911L97.7245 21.0525L98.6859 22.636L99.4211 23.9368L100.1 25.2375L100.665 26.312L101.4 27.8955L102.249 29.8183L103.154 32.137L103.889 34.2295L104.624 36.5482L105.02 38.0186L105.076 38.3579V38.9235L104.963 39.7152L104.511 40.6201L103.945 41.2422L103.38 41.638L102.758 41.9208L101.909 42.0905L96.8762 42.4863L91.5601 42.8822H90.3159L90.1463 42.3732L89.4111 40.3939L88.7325 38.3579L87.6014 34.9082L86.8096 32.4764L85.9048 29.7052L85.113 27.2734L84.0951 24.163L83.5861 22.5795L83.3599 21.6746L83.4164 20.8829L83.982 17.9421L84.2647 16.6414L84.6606 14.4923L85.622 9.68529L85.8482 8.78043L85.9048 8.72388Z" fill="#5E2442"/>
<path d="M57.8543 4.2561L57.9674 4.31266V16.0192L57.9108 16.9241L57.2322 17.829L56.7797 18.451H56.6666L56.5535 18.6773L56.1011 19.2993L55.7052 19.8083H55.5921L55.5356 20.0911L55.0831 20.6001L54.6873 21.1656L54.3479 21.618H54.2348V21.7877H54.1217L54.0086 22.0705L53.7824 22.3532H53.6693L53.6127 22.5795H53.4996V22.7491H53.3865L53.33 22.9753L53.1038 23.2581H52.9907L52.9341 23.4843H52.821L52.7079 23.7671L52.6513 23.8802H52.5382L52.4817 24.1064L52.1989 24.3892L51.7465 25.0113L50.8416 26.1989L50.163 27.1037L49.3712 28.1217L48.5795 29.1962L47.6746 30.3838L46.5436 31.8542L46.0346 32.5894L45.8084 32.8722L45.7518 32.9853H45.6387L45.5256 33.2115L45.2428 33.6074L45.2994 33.8336L45.1297 33.9467L44.8469 33.8902L43.2634 33.0984L42.9241 33.0419L41.5668 32.2501L39.9268 31.2887L37.2122 29.5921L35.6853 28.5741L35.0632 28.1783L34.4976 27.7258L33.9887 27.2168L33.5928 26.5382L33.3666 25.803V24.5588L33.7059 23.4843L34.2714 22.0705L34.9501 20.5435L35.5156 19.469L36.0811 18.5076L36.5901 17.7158L37.2122 16.811L38.004 15.7365L38.5129 15.1144L39.135 14.3792L39.644 13.8137L40.0399 13.4178L40.3792 13.0219L40.8316 12.626L41.5103 11.9474L42.1324 11.4384L42.8676 10.8163L43.9986 9.96801L45.3559 9.06315L46.3739 8.44107L47.4484 7.81898L48.3533 7.36655L49.9368 6.63135L51.4637 6.00926L53.4431 5.33062L55.479 4.76509L56.9494 4.42576L57.8543 4.2561Z" fill="#8D5242"/>
<path d="M57.9109 16.7544L58.1936 16.8675L58.7026 17.2068L59.3247 17.5461L60.9082 18.5076L62.3786 19.4124L63.6793 20.2042L64.867 20.9394L67.5815 22.636L68.656 23.3146L69.674 23.9367L69.9002 24.0498L69.7871 24.3326L69.5043 27.2168L68.9954 31.7411L68.2602 38.2447L67.8643 41.5814V41.9773L67.0725 41.9207L64.5842 41.4683L61.9262 40.8462L60.0033 40.3372L58.3067 39.8282L56.8929 39.3193L55.0832 38.6972L52.9907 37.9054L50.5589 36.8875L48.9754 36.1523L47.7312 35.5867L46.6567 35.0212L45.4125 34.3991L44.1684 33.7205L43.1504 33.1549V33.0418L43.4897 33.1549L44.3946 33.6073L44.9036 33.8901L45.1863 33.8336L45.2429 33.5508L45.6387 32.9853H45.7519L45.865 32.7025L46.2608 32.1935L46.7133 31.5714L47.2788 30.8362L48.9189 28.6872L49.7106 27.6127L50.163 27.0471L50.8417 26.1423L51.7465 24.9547L52.3686 24.1064L52.4817 24.0498L52.5383 23.8801H52.6514L52.7645 23.5974L52.9342 23.4277L52.9907 23.2581L53.2735 22.9753L53.3866 22.7491H53.4997V22.5794L53.6128 22.5229L53.6693 22.3532L53.9521 22.0704L54.1218 21.7877H54.2349V21.618L54.5177 21.3352L55.1397 20.4869L55.5356 19.9779L55.5922 19.8083L55.8749 19.5255L56.4405 18.7903L56.6667 18.451H56.7798L56.8929 18.1682L57.6281 17.2634L57.9109 16.7544Z" fill="#5E2442"/>
<path d="M83.1903 21.5615H83.3034V21.6746H83.4165L83.6993 22.7491L84.6041 25.5203L85.9049 29.479L86.8097 32.3067L87.6015 34.6819L88.3932 37.1138L89.3546 40.0545L90.0898 42.0339L90.3161 42.8257L90.7685 42.8822V42.9388H78.5529L75.5556 42.8257L71.8796 42.5429L68.5429 42.147L67.8643 41.9774L67.8077 41.5815L68.3733 36.7179L69.2781 28.6873L69.674 25.0678L69.7306 24.3326L69.8437 24.1064L72.2189 23.5975L76.6866 22.8057L77.8743 22.5795L79.6274 22.2967L82.0592 21.8443L83.1903 21.5615Z" fill="#8D5141"/>
<path d="M57.7978 16.9807L57.9109 17.2069L57.9674 35.2475L57.9109 39.2063L57.8543 39.3759L57.515 39.3194L57.1191 39.1497L56.7232 39.0931L56.5536 38.9235L56.1012 38.8669L55.9315 38.8104L55.8749 38.6973L55.4225 38.5842V38.4711L54.857 38.4145L54.6308 38.2448L54.2349 38.1883V38.0752L53.7825 38.0186L53.5562 37.849L52.9907 37.6793V37.5662H52.6514L52.3686 37.3965L51.9162 37.34L51.8031 37.1703L51.3507 37.0572L51.2375 37.0007V36.8876H50.8982L50.7286 36.7179L50.3327 36.6613L50.2196 36.4917L49.8237 36.3786L49.5975 36.322V36.2089L49.3147 36.322L47.7312 35.5868L46.6567 35.0213L45.4125 34.3992L44.1684 33.7206L43.1504 33.155V33.0419L43.4897 33.155L44.3946 33.6075L44.9036 33.8902L45.1863 33.8337L45.2429 33.5509L45.6387 32.9854H45.7519L45.865 32.7026L46.2608 32.1936L46.7133 31.5715L47.2788 30.8363L48.9189 28.6873L49.7106 27.6128L50.163 27.0472L50.8417 26.1424L51.7465 24.9548L52.3686 24.1065L52.4817 24.0499L52.5383 23.8802H52.6514L52.7645 23.5975L52.9342 23.4278L52.9907 23.2582L53.2735 22.9754L53.3866 22.7492H53.4997V22.5795L53.6128 22.523L53.6694 22.3533L53.9521 22.0705L54.1218 21.7878H54.2349V21.6181L54.5177 21.3353L55.1397 20.487L55.5356 19.9781L55.5922 19.8084L55.8749 19.5256L56.4405 18.7904L56.6667 18.4511H56.7798L56.8929 18.1683L57.6281 17.2635L57.7978 16.9807Z" fill="#763A41"/>
<path d="M17.5881 11.9475H18.5495L19.4544 12.2303L20.0765 12.6262L20.642 13.1917L21.0944 13.8703L21.3207 14.4924L21.4338 14.9448V15.9063L21.2076 16.5849L20.8682 17.207L20.3027 17.8291L19.5109 18.3381L18.8323 18.6208L18.6061 18.6774H17.5316L16.7964 18.4512L16.1743 18.1118L15.4956 17.4898L15.0998 16.9242L14.817 16.2456L14.6473 15.3407L14.7039 14.6055L14.9301 13.9269L15.2694 13.3613L15.7784 12.7958L16.3439 12.3999L16.9095 12.1172L17.5881 11.9475Z" fill="#464B4D"/>
<path d="M70.183 42.26H70.8616L71.6534 42.3166L71.7099 42.3731L74.1417 42.5428L75.2728 42.6559L77.5915 42.769V42.8255H75.5556L71.8796 42.5428L70.3526 42.3731L70.183 42.26Z" fill="#733C42"/>
<path d="M17.6447 11.8342H18.3799L19.2282 12.0604L20.0199 12.4563L20.5855 12.9653L20.9248 13.4177L21.3207 14.2095L21.4903 14.8316V15.9061H21.4338L21.3772 14.9447L21.151 14.1529L20.8682 13.5874L20.4158 13.0219L20.0199 12.626L19.4544 12.2867L18.5495 12.0039H17.5881L16.9095 12.1735L16.6267 12.2301L16.8529 12.0604L17.6447 11.8342Z" fill="#8CC783"/>
<path d="M45.9215 34.4558L46.0912 34.5689L46.4305 34.682L47.4485 35.191L47.7878 35.3041L47.9009 35.4738L48.2402 35.5303L48.3533 35.7L48.6927 35.8131L48.7492 35.9828L48.4665 35.9262L45.865 34.6255L45.9215 34.4558Z" fill="#682E41"/>
<path d="M49.4844 36.209H49.5975V36.3221L49.8803 36.3786L50.2762 36.4918L50.3327 36.6614H50.7286L50.8982 36.8311L51.2376 36.8876V37.0007L51.8031 37.1138L51.9728 37.3966L51.6334 37.3401L49.9368 36.6049L49.4279 36.3786L49.4844 36.209Z" fill="#662C41"/>
<path d="M57.6846 17.2068L57.7977 17.2633L57.2887 17.8854L57.0625 18.2813H56.9494L56.8363 18.5075L56.2707 19.2427L55.9314 19.6951H55.8183L55.7052 19.9214V19.7517L56.4404 18.7903L56.6666 18.451H56.7797L56.8928 18.1682L57.628 17.2633L57.6846 17.2068Z" fill="#5E2442"/>
<path d="M43.1504 33.042L43.4897 33.1551L45.0732 33.9468L44.9036 34.06L44.5642 33.9468L43.5463 33.3813L43.1504 33.1551V33.042Z" fill="#7C4041"/>
<path d="M70.183 42.26H70.8616L71.6534 42.3166L71.7099 42.3731L72.1624 42.4297V42.5428L71.4272 42.4862L70.3526 42.3731L70.183 42.26Z" fill="#794041"/>
<path d="M49.4844 36.209H49.5975V36.3221L49.8803 36.3786L50.2762 36.4918L50.3893 36.7745L49.8237 36.5483L49.4279 36.3786L49.4844 36.209Z" fill="#6A2F41"/>
<path d="M41.2275 31.9673L41.5669 32.0804L42.3021 32.4763L42.6414 32.7025L42.4717 32.759L41.2841 32.0804L41.2275 31.9673Z" fill="#7D4141"/>
<path d="M73.4065 42.543H74.0852V42.6561L74.3114 42.7126L73.1803 42.6561L73.4065 42.543Z" fill="#7D4141"/>
<path d="M50.3892 36.6614H50.7285L50.9547 36.8876V37.0007L50.4457 36.831L50.3892 36.6614Z" fill="#682D41"/>
<path d="M45.9215 34.4558L46.0912 34.5689L46.4305 34.682L46.5436 34.9082L46.2043 34.7951L45.865 34.6255L45.9215 34.4558Z" fill="#6A2F41"/>
<path d="M44.9036 34.0034L45.1863 34.06L45.5822 34.2862V34.3993L45.356 34.3427L44.9036 34.1165V34.0034Z" fill="#692F41"/>
<path d="M55.4791 20.0911V20.2607L54.9701 20.8828V20.7132L55.4225 20.1476L55.4791 20.0911Z" fill="#5E2442"/>
<path d="M24.3862 50.2673C24.9602 49.9904 25.8618 50.0122 25.9587 51.8652C25.3034 51.8652 24.7932 50.6057 24.3862 50.2673Z" fill="#BABABA"/>
<path d="M24.3862 50.2673C24.2387 50.1447 24.3103 49.8337 24.2607 49.8423C24.29 49.9632 24.3314 50.1964 24.3862 50.2673C24.4414 50.2302 24.3207 50.2989 24.3862 50.2673Z" fill="#D9D9D9"/>
<path d="M28.7796 50.8744C28.5956 51.1163 28.3836 51.2818 28.165 51.3909C28.6149 51.6152 29.6766 51.8842 30.3244 51.1655C29.9616 50.9831 29.2529 50.5768 29.1276 50.3212C29.1448 50.4602 28.986 50.6692 28.7796 50.8744Z" fill="#BABABA"/>
<path d="M24.3862 50.2673C25.0341 51.4623 25.6439 51.8652 25.9587 51.8652C25.3034 51.8652 24.7932 50.6057 24.3862 50.2673C24.4414 50.2302 24.3207 50.2989 24.3862 50.2673C24.3314 50.1964 24.29 49.9632 24.2607 49.8423C24.2011 49.8526 24.2293 49.9779 24.3862 50.2673Z" fill="#D9D9D9"/>
<path d="M27.8952 40.3539C27.6703 39.9465 27.0584 39.349 26.4106 40.2181C25.4926 42.9052 23.8857 48.295 24.2607 49.8423C24.3103 49.8337 24.2387 50.1447 24.3862 50.2673C24.9602 49.9904 25.8618 50.0122 25.9587 51.8652L26.4436 51.7611C26.9663 51.6576 27.6704 51.5662 27.5581 51.5643C27.5345 51.5667 27.5109 51.5686 27.4876 51.5701C27.2245 51.5868 26.9862 51.5468 26.8154 51.4895C25.0005 50.3362 26.2912 44.9882 27.4541 41.5761C27.6057 41.1313 27.7551 40.7194 27.8952 40.3539Z" fill="#FDFAFA"/>
<path d="M27.4541 41.5761C26.2912 44.9882 25.0005 50.3362 26.8154 51.4895C26.9862 51.5468 27.2245 51.5868 27.4876 51.5701C26.58 51.1088 25.4752 48.6035 27.4541 41.5761Z" fill="#BABABA"/>
<path fill-rule="evenodd" clip-rule="evenodd" d="M29.5147 40.8971C29.1998 40.4897 28.4351 39.8107 27.8952 40.3539C27.7551 40.7194 27.6057 41.1313 27.4541 41.5761C25.4752 48.6035 26.58 51.1088 27.4876 51.5701C27.5109 51.5686 27.5345 51.5667 27.5581 51.5643C27.7547 51.5444 27.9627 51.4918 28.165 51.3909C28.3836 51.2818 28.5956 51.1163 28.7796 50.8744C28.905 50.7096 29.0173 50.5093 29.1098 50.2673C28.8398 47.325 28.5429 41.3317 29.5147 40.8971ZM30.7293 51.1655C30.6841 51.1696 30.6367 51.165 30.588 51.1502C29.8914 50.9399 28.9139 48.6811 29.6906 40.7613C30.285 40.3372 31.3218 39.9166 31.809 40.8971C31.809 43.3415 32.8887 48.7735 33.5636 49.5883C33.7978 49.8711 33.7187 50.0959 33.5026 50.2673C32.8539 49.8074 31.6798 48.7245 31.4164 47.612C31.5363 48.8723 31.8164 49.9858 32.3489 50.6747C32.0196 50.9296 31.4106 51.2161 30.7293 51.1655Z" fill="#FDFAFA"/>
<path d="M32.3489 50.6747C32.7055 50.6234 33.2207 50.4909 33.5026 50.2673C32.8539 49.8074 31.6798 48.7245 31.4164 47.612C31.5363 48.8723 31.8164 49.9858 32.3489 50.6747Z" fill="#BABABA"/>
<path d="M29.5147 40.8971C28.5429 41.3317 28.8398 47.325 29.1098 50.2673C29.5827 50.8297 30.0999 51.0805 30.588 51.1502C29.8914 50.9399 28.9139 48.6811 29.6906 40.7613C29.6263 40.8071 29.5673 40.853 29.5147 40.8971Z" fill="#D2C7C7"/>
<path d="M27.8952 40.3539C27.6703 39.9465 27.0584 39.349 26.4106 40.2181C25.4926 42.9052 23.8857 48.295 24.2607 49.8423M27.8952 40.3539C28.4351 39.8107 29.1998 40.4897 29.5147 40.8971M27.8952 40.3539C27.7551 40.7194 27.6057 41.1313 27.4541 41.5761M24.3862 50.2673C25.0341 51.4623 25.6439 51.8652 25.9587 51.8652M24.3862 50.2673C24.2387 50.1447 24.3103 49.8337 24.2607 49.8423M24.3862 50.2673C24.9602 49.9904 25.8618 50.0122 25.9587 51.8652M24.3862 50.2673C24.7932 50.6057 25.3034 51.8652 25.9587 51.8652M24.3862 50.2673C24.3207 50.2989 24.4414 50.2302 24.3862 50.2673ZM24.3862 50.2673C24.3314 50.1964 24.29 49.9632 24.2607 49.8423M24.3862 50.2673C24.2293 49.9779 24.2011 49.8526 24.2607 49.8423M25.9587 51.8652L26.4436 51.7611C26.9663 51.6576 27.6704 51.5662 27.5581 51.5643M29.1098 50.2673C28.8398 47.325 28.5429 41.3317 29.5147 40.8971M29.1098 50.2673C29.5827 50.8297 30.0999 51.0805 30.588 51.1502M29.1098 50.2673C29.1123 50.2843 29.1184 50.3023 29.1276 50.3212M29.1098 50.2673C29.1194 50.2838 29.1252 50.3018 29.1276 50.3212M29.1098 50.2673C29.0173 50.5093 28.905 50.7096 28.7796 50.8744M29.5147 40.8971C29.5673 40.853 29.6263 40.8071 29.6906 40.7613M31.809 40.8971C31.3218 39.9166 30.285 40.3372 29.6906 40.7613M31.809 40.8971C31.809 43.3415 32.8887 48.7735 33.5636 49.5883C33.7978 49.8711 33.7187 50.0959 33.5026 50.2673M31.809 40.8971C31.5425 42.3451 31.2508 44.8225 31.3714 47.0081M32.3489 50.6747C32.0196 50.9296 31.4106 51.2161 30.7293 51.1655M32.3489 50.6747C32.7055 50.6234 33.2207 50.4909 33.5026 50.2673M32.3489 50.6747C31.8164 49.9858 31.5363 48.8723 31.4164 47.612M30.7293 51.1655C30.6841 51.1696 30.6367 51.165 30.588 51.1502M30.7293 51.1655C30.6825 51.1621 30.6354 51.157 30.588 51.1502M29.6906 40.7613C28.9139 48.6811 29.8914 50.9399 30.588 51.1502M33.5026 50.2673C32.8539 49.8074 31.6798 48.7245 31.4164 47.612M31.3714 47.0081C31.3509 47.208 31.3687 47.4105 31.4164 47.612M31.3714 47.0081C31.3827 47.2123 31.3976 47.414 31.4164 47.612M28.165 51.3909C28.6149 51.6152 29.6766 51.8842 30.3244 51.1655C29.9616 50.9831 29.2529 50.5768 29.1276 50.3212M28.165 51.3909C28.3836 51.2818 28.5956 51.1163 28.7796 50.8744M28.165 51.3909C28.3371 51.2666 28.5805 51.0723 28.7796 50.8744M28.165 51.3909C27.9627 51.4918 27.7547 51.5444 27.5581 51.5643M27.4876 51.5701C27.2245 51.5868 26.9862 51.5468 26.8154 51.4895C25.0005 50.3362 26.2912 44.9882 27.4541 41.5761M27.4876 51.5701C27.4426 51.5569 27.5341 51.5938 27.4876 51.5701ZM27.4876 51.5701C26.58 51.1088 25.4752 48.6035 27.4541 41.5761M27.4876 51.5701C27.5109 51.5686 27.5345 51.5667 27.5581 51.5643M27.4876 51.5701C27.5235 51.566 27.5464 51.5641 27.5581 51.5643M28.7796 50.8744C28.986 50.6692 29.1448 50.4602 29.1276 50.3212" stroke="#2F2F2F" stroke-width="0.4"/>
<path d="M33.1475 38.8713L31.9443 40.0162C31.4849 41.778 32.4212 45.7185 32.9468 47.4686C33.4579 46.8705 34.4862 45.7222 34.6579 45.5189C34.649 45.5014 34.6401 45.4839 34.6312 45.4662C34.5807 45.401 34.4984 45.2302 34.3962 44.9568C34.0283 44.0863 33.7177 42.9716 33.5348 41.5617C33.3921 40.7767 33.2579 39.8786 33.1475 38.8713Z" fill="#BABABA"/>
<path fill-rule="evenodd" clip-rule="evenodd" d="M34.6579 45.5189C34.6819 45.4905 34.6892 45.4805 34.6761 45.493C34.6669 45.5017 34.6517 45.4927 34.6312 45.4662C34.5508 45.3065 34.4722 45.1369 34.3962 44.9568C34.1648 44.3384 33.8316 43.1949 33.5348 41.5617C33.7177 42.9716 34.0283 44.0863 34.3962 44.9568C34.4984 45.2302 34.5807 45.401 34.6312 45.4662C34.6401 45.4839 34.649 45.5014 34.6579 45.5189Z" fill="#D9D9D9"/>
<path d="M32.7647 38.4713L32.8832 38.9954C33.1805 38.6189 33.274 38.9918 33.3493 39.2922C33.3553 39.3159 33.3611 39.3393 33.3669 39.3616L33.3688 39.3689C33.3909 40.1688 33.4487 40.898 33.5348 41.5617C33.8316 43.1949 34.1648 44.3384 34.3962 44.9568C34.4722 45.1369 34.5508 45.3065 34.6312 45.4662C34.6517 45.4927 34.6669 45.5017 34.6761 45.493C34.6892 45.4805 34.6819 45.4905 34.6579 45.5189C35.4086 46.9819 36.3108 47.5853 36.8633 47.6904C36.8779 47.0651 38.3116 45.3782 39.0267 44.6129C41.7029 41.9644 42.6474 35.7201 42.7549 32.9856L41.5105 32.1938C40.8956 31.6581 40.4464 31.3717 40.2661 31.6281C42.8158 34.3986 36.2832 37.0764 32.7647 38.4713Z" fill="#FDFAFD"/>
<path d="M33.3688 39.3689C33.3909 40.1688 33.4487 40.898 33.5348 41.5617M33.3688 39.3689C33.3682 39.3665 33.3676 39.3641 33.3669 39.3616M33.3688 39.3689L33.3669 39.3616M33.5348 41.5617C33.3921 40.7767 33.2579 39.8786 33.1475 38.8713L31.9443 40.0162C31.4849 41.778 32.4212 45.7185 32.9468 47.4686C33.4579 46.8705 34.4862 45.7222 34.6579 45.5189M33.5348 41.5617C33.7177 42.9716 34.0283 44.0863 34.3962 44.9568M33.5348 41.5617C33.8316 43.1949 34.1648 44.3384 34.3962 44.9568M34.6579 45.5189C35.4086 46.9819 36.3108 47.5853 36.8633 47.6904C36.8779 47.0651 38.3116 45.3782 39.0267 44.6129C41.7029 41.9644 42.6474 35.7201 42.7549 32.9856L41.5105 32.1938C40.8956 31.6581 40.4464 31.3717 40.2661 31.6281C42.8158 34.3986 36.2832 37.0764 32.7647 38.4713L32.8832 38.9954C33.1805 38.6189 33.274 38.9918 33.3493 39.2922C33.3553 39.3159 33.3611 39.3393 33.3669 39.3616M34.6579 45.5189C34.649 45.5014 34.6401 45.4839 34.6312 45.4662M34.6579 45.5189C34.6819 45.4905 34.6892 45.4805 34.6761 45.493C34.6669 45.5017 34.6517 45.4927 34.6312 45.4662M34.3962 44.9568C34.4984 45.2302 34.5807 45.401 34.6312 45.4662M34.3962 44.9568C34.4722 45.1369 34.5508 45.3065 34.6312 45.4662" stroke="#2F2F2F" stroke-width="0.4"/>
<path d="M24.5442 46.7843C24.6347 44.9746 25.8262 41.8453 26.354 40.4503C26.354 40.6313 25.7885 40.111 25.5623 39.8848L24.8835 41.4683C23.2548 45.2687 23.9787 46.5958 24.5442 46.7843Z" fill="#FDFDFD" stroke="#2F2F2F" stroke-width="0.4"/>
<path d="M17.9752 11.0991H18.3645L18.62 11.1234L18.918 11.166L19.07 11.1964L19.3255 11.2573L19.6235 11.3546L19.7452 11.3971L20.0067 11.5127L20.1344 11.5735L20.4081 11.7256L20.6697 11.902L20.7548 11.9628L20.8521 12.0419L20.9373 12.1088L21.0164 12.1757L21.065 12.2182L21.1197 12.273L21.1684 12.3156L21.3387 12.4859L21.3934 12.5528L21.4725 12.6379L21.5273 12.7048L21.5881 12.7778L21.6611 12.8812L21.7462 12.9968L21.8131 13.1002L21.9408 13.313L21.9956 13.4104L22.0747 13.5685L22.1537 13.7388L22.2571 14.0064L22.3058 14.1524L22.3848 14.4383L22.4274 14.6511L23.1025 14.6572L23.2364 14.6694L23.3519 14.6998L23.4492 14.7424L23.5161 14.7789L23.5891 14.8336L23.6499 14.8883L23.6986 14.937L23.7655 15.0282L23.8263 15.1438L23.8628 15.2593L23.875 15.3141L23.8872 15.454L23.875 15.5878L23.8446 15.7034L23.802 15.8007L23.7473 15.898L23.6925 15.9649L23.6378 16.0257L23.5405 16.1048L23.4553 16.1534L23.3702 16.1899L23.2668 16.2203L23.139 16.2386H23.0965V16.8711L23.1512 16.8894L23.2424 16.9441L23.3276 17.0171L23.3945 17.1023L23.4492 17.2057L23.4796 17.3091L23.4857 17.3455L23.4918 17.4672V17.9842L23.4857 18.0997L23.4614 18.2031L23.4249 18.2944L23.3702 18.3795L23.3033 18.4525L23.2303 18.5133L23.1269 18.5681L23.0965 18.5742L23.1025 19.4378L23.1999 19.4865L23.2668 19.5351L23.3276 19.5899L23.3884 19.6629L23.4432 19.7602L23.4736 19.8514L23.4857 19.9244L23.4918 20.04V20.557L23.4857 20.6664L23.4675 20.7577L23.431 20.8489L23.3884 20.9219L23.3398 20.9827L23.3093 21.0192L23.212 21.0922L23.1208 21.1408L23.1025 21.1469V21.8099L23.1999 21.8585L23.2607 21.9011L23.3337 21.968L23.3762 22.0167L23.431 22.1079L23.4675 22.1991L23.4857 22.2904L23.4918 22.4059V22.929L23.4857 23.0385L23.4675 23.1236L23.4371 23.2088L23.3945 23.2879L23.3458 23.3487L23.3093 23.3913L23.2242 23.4582L23.133 23.5068L23.0417 23.5372L22.9444 23.5555H22.8532L22.7559 23.5372L22.6464 23.5007L22.5612 23.4521L22.4943 23.3973L22.4457 23.3487L22.3909 23.2696L22.3423 23.1723L22.3119 23.0689L22.3058 23.0142L22.2997 22.8804V22.5033L22.3058 22.3086L22.324 22.2113L22.3605 22.114L22.4092 22.0288L22.4822 21.9437L22.5612 21.8768L22.6646 21.822L22.689 21.8099L22.695 21.7856V21.153L22.5916 21.0983L22.5247 21.0496L22.4578 20.9888L22.4092 20.928L22.3544 20.8307L22.3179 20.7273L22.3058 20.6421L22.2997 20.4596V20.1799L22.3058 19.9366L22.324 19.8393L22.3605 19.7419L22.4153 19.6507L22.4822 19.5716L22.5552 19.5108L22.6646 19.45L22.695 19.4439V18.5742L22.6646 18.5681L22.5552 18.5072L22.4639 18.4282L22.4031 18.3491L22.3666 18.2822L22.3362 18.2153L22.3119 18.1241L22.3058 18.0693V17.376L22.3179 17.2969L22.3484 17.1996L22.4031 17.0962L22.47 17.0171L22.5126 16.9745L22.5795 16.9259L22.6707 16.8772L22.689 16.8711L22.695 16.8468V16.2447H22.4274L22.397 16.4089L22.3484 16.5974L22.2936 16.786L22.2389 16.9441L22.1476 17.1752L22.0747 17.3273L21.9773 17.528L21.8739 17.6983L21.7949 17.8321L21.7219 17.9355L21.655 18.0268L21.5698 18.1423L21.5151 18.2092L21.4604 18.27L21.4178 18.3187L21.363 18.3795L21.3083 18.4464L21.2353 18.5194H21.2231V18.5316L21.1745 18.5742L21.0833 18.6654L21.0346 18.708L20.9738 18.7627L20.8886 18.8296L20.7913 18.9087L20.694 18.9817L20.4933 19.1155L20.3777 19.1885L20.2013 19.2858L20.0797 19.3527L19.8607 19.45L19.7148 19.5108L19.4289 19.6081L19.2829 19.6507L18.991 19.7176L18.8085 19.748L18.5774 19.7784L18.2915 19.7967H17.9996L17.7076 19.7784L17.4522 19.7419L17.2697 19.7115L16.9048 19.6203L16.7406 19.5656L16.4608 19.4622L16.2601 19.3648L16.1202 19.2979L16.0168 19.2432L15.8891 19.1641L15.7674 19.0911L15.6944 19.0425L15.4268 18.8418L15.366 18.7931L15.2869 18.7201L15.2261 18.6654L15.1531 18.5985L15.1044 18.5559L15.0132 18.4647L14.9706 18.416L14.9159 18.3552L14.8429 18.2761L14.7699 18.191L14.6848 18.0754L14.5875 17.9477L14.5206 17.8504L14.4172 17.6801L14.3259 17.528L14.2225 17.3212L14.1556 17.1813L14.0948 17.0232L13.9975 16.7556L13.9306 16.5062L13.888 16.3298L13.8454 16.0683L13.8211 15.898L13.8089 15.7155L13.8029 15.5756V15.3202L13.8211 14.9978L13.8758 14.6329L13.9063 14.4869L13.9792 14.2071L14.0522 13.9882L14.1374 13.7631L14.186 13.6536L14.2347 13.5563L14.3259 13.3678L14.4293 13.1975L14.4962 13.088L14.5814 12.9603L14.6787 12.8325L14.7638 12.717L14.8368 12.6318L14.9098 12.5528L14.9524 12.5041L15.0071 12.4433L15.0923 12.3521L15.1714 12.2791L15.2443 12.2122L15.293 12.1696L15.366 12.1027L15.4694 12.0236L15.5971 11.9263L15.7066 11.8472L15.8221 11.7742L15.9925 11.6708L16.1202 11.5979L16.4365 11.4458L16.6128 11.3789L16.8683 11.2877L17.2211 11.1964L17.3488 11.1721L17.6772 11.1234L17.8901 11.1052L17.9752 11.0991ZM18.0239 11.6952L17.732 11.7195L17.5556 11.7438L17.3549 11.7803L17.1116 11.8412L16.9534 11.8898L16.7223 11.975L16.5703 12.0419L16.3391 12.1574L16.2479 12.2122L16.1384 12.2791L16.0533 12.3338L15.9925 12.3764L15.8769 12.4615L15.7978 12.5224L15.7309 12.5771L15.6518 12.6501L15.6032 12.6927L15.5241 12.7656L15.4207 12.869L15.3781 12.9177L15.3234 12.9785L15.2808 13.0272L15.2018 13.1245L15.1166 13.2401L15.0497 13.3313L14.9767 13.4469L14.8794 13.605L14.7943 13.7692L14.7152 13.9334L14.6665 14.049V14.0672L14.6544 14.0733L14.6604 14.0855L14.6483 14.0916L14.551 14.3835L14.5388 14.4322V14.4565L14.5266 14.4626L14.5023 14.566L14.4658 14.7302L14.4415 14.8701L14.4172 15.0586L14.405 15.2229L14.3989 15.3932V15.5026L14.405 15.6851L14.4293 15.9466L14.4476 16.0622V16.1048H14.4597L14.4537 16.1352H14.4597L14.4719 16.196V16.2325H14.4841L14.478 16.2568L14.4901 16.2812L14.4962 16.3298L14.5023 16.3541H14.5145L14.5206 16.4271H14.5327L14.5388 16.5001L14.5449 16.5184H14.557L14.5631 16.5792H14.5753L14.5692 16.5974H14.5814L14.5875 16.6522H14.5996L14.5935 16.6704H14.6057L14.6118 16.7191H14.624L14.63 16.7495L14.6361 16.786H14.6483V16.8164H14.6604L14.6665 16.8651H14.6787L14.6848 16.9076H14.6969V16.938H14.7091L14.7213 16.9806L14.7334 17.011L14.7456 17.0171L14.7578 17.0718H14.7699L14.7821 17.1144L14.7943 17.1205L14.8064 17.1692H14.8186L14.8307 17.2117L14.8429 17.2178L14.8551 17.2482L14.9037 17.3455L14.9281 17.3699L14.9646 17.4368L15.0071 17.5037L15.0132 17.5219L15.0375 17.5463L15.0497 17.5767L15.0619 17.5888L15.0984 17.6314L15.1288 17.6801L15.1653 17.7226L15.1835 17.7531L15.2018 17.7774L15.2383 17.82L15.2565 17.8443L15.2748 17.8747L15.3417 17.9355L15.3538 17.9598L15.3964 17.9963L15.439 18.045L15.512 18.1241L15.5849 18.191L15.6214 18.2214L15.6518 18.2579L15.6762 18.2761L15.7066 18.3065L15.7674 18.3613H15.7796L15.7978 18.3795L15.8221 18.3978L15.8647 18.4343L15.883 18.4403L15.8951 18.4525L15.9681 18.5072L16.0046 18.5377H16.0168L16.0411 18.562H16.0533L16.0654 18.5742L16.1141 18.6106H16.1263L16.1506 18.635L16.1992 18.6593L16.2175 18.6654L16.2297 18.6836H16.2479L16.2601 18.6958L16.2905 18.714L16.3087 18.7201L16.3209 18.7323H16.3391L16.3452 18.7445L16.3695 18.7566L16.3939 18.7627L16.4 18.7749L16.4547 18.7931L16.4608 18.8053L16.5034 18.8174L16.5094 18.8296L16.5824 18.8539L16.5885 18.8661H16.6068L16.6128 18.8783L16.6615 18.8904L16.6676 18.9026L16.7223 18.9148L16.7284 18.9269H16.7527L16.7588 18.9391L16.8318 18.9634H16.85L16.8561 18.9756L16.9169 18.9877L16.923 18.9999H16.9534L16.9595 19.0121L17.0264 19.0242L17.0325 19.0364L17.1298 19.0607L17.2211 19.0851H17.2454L17.2515 19.0972H17.294V19.1094L17.3488 19.1155L17.4096 19.1216V19.1337H17.44L17.4704 19.1398L17.7137 19.1763L17.811 19.1885L18.0847 19.2067H18.255L18.5287 19.1885L18.7538 19.158L18.9241 19.1276L19.1309 19.079L19.3012 19.0303L19.4228 18.9877L19.6114 18.9148L19.6843 18.8843L19.7817 18.8357L19.8607 18.7992L19.958 18.7505L20.1405 18.6411L20.2743 18.5559L20.4446 18.4282L20.5237 18.3674L20.6088 18.2944L20.6393 18.27V18.2579L20.6636 18.2457L20.7122 18.1971L20.7609 18.1545L20.9008 18.0146L20.9434 17.9659L21.0042 17.899L21.0528 17.8382L21.1197 17.7591L21.1684 17.6922L21.2475 17.5828L21.3083 17.4915L21.4117 17.3212L21.4847 17.1874L21.5881 16.9745L21.655 16.8103L21.7341 16.5853L21.7888 16.3906L21.8314 16.2143L21.8739 15.9588L21.8922 15.8067L21.9044 15.527V15.3871L21.8922 15.1134L21.8679 14.9005L21.8374 14.7059L21.7645 14.4139L21.7341 14.3105L21.6428 14.0551L21.5942 13.9334L21.5455 13.8361L21.4968 13.7327L21.4421 13.6293L21.3691 13.5077L21.3205 13.4286L21.2779 13.3556L21.2231 13.2826L21.1988 13.2461H21.1867L21.1745 13.2157L21.1137 13.1367L21.0711 13.0819L21.0164 13.015L20.9859 12.9785L20.9555 12.9481L20.8643 12.8508L20.8582 12.8386H20.846L20.8339 12.8143L20.7609 12.7413L20.7122 12.6987H20.7001V12.6866L20.6514 12.6501L20.621 12.6197L20.5359 12.5406L20.5054 12.5284V12.5163L20.4507 12.4798L20.3899 12.4311L20.2987 12.3642L20.2196 12.3095L20.0614 12.2122L19.9337 12.1392L19.7391 12.0419L19.5749 11.9689L19.3559 11.8898L19.1613 11.829L18.9119 11.7682L18.6625 11.7256L18.5105 11.7073L18.328 11.6952H18.0239ZM22.4822 15.0526L22.4943 15.3202V15.5574L22.4882 15.7338L22.4822 15.8432H22.7011L22.7255 15.7581L22.7619 15.7094L22.8106 15.6729L22.841 15.6608L22.9201 15.6547L22.9809 15.6729L23.0356 15.7094L23.0721 15.7642L23.0904 15.8372L23.0965 15.8432L23.1755 15.8372L23.2546 15.8128L23.3276 15.7703L23.4006 15.7034L23.4432 15.6425L23.4736 15.5635L23.4857 15.5148L23.4918 15.4357L23.4796 15.3506L23.4492 15.2715L23.4067 15.2046L23.3641 15.156L23.2972 15.1073L23.2181 15.0708L23.1695 15.0586L23.1147 15.0526H22.4822ZM23.0661 17.3273L23.0235 17.376L22.9748 17.4064L22.9262 17.4185H22.8653L22.8045 17.4003L22.7559 17.3638L22.7315 17.3334H22.7133L22.7011 17.4064V18.0511L22.7133 18.1119L22.7376 18.1058L22.7802 18.0632L22.8288 18.0389L22.8714 18.0268H22.9201L22.9809 18.045L23.0356 18.0815L23.0661 18.118H23.0782L23.0965 17.9903V17.4368L23.0843 17.3577L23.0721 17.3273H23.0661ZM23.0661 19.9001L23.0417 19.9305L22.9931 19.967L22.9505 19.9852L22.9201 19.9913H22.8714L22.8106 19.9731L22.7619 19.9366L22.7315 19.9062H22.7133L22.7011 19.9791V20.6178L22.7133 20.6786L22.7255 20.6847L22.7559 20.6543L22.8167 20.6117L22.8532 20.5995H22.9383L22.987 20.6178L23.0235 20.6421L23.0661 20.6847H23.0782L23.0965 20.5691V20.0156L23.0843 19.9305L23.0721 19.9001H23.0661ZM22.7194 22.2721L22.7072 22.3147L22.7011 22.3451V22.9898L22.7194 23.0507L22.7619 23.1054L22.8167 23.1419L22.8897 23.1601L22.9627 23.148L23.0174 23.1176L23.0478 23.0871L23.0782 23.0446L23.0965 22.9594V22.3816L23.0843 22.3025L23.0721 22.2721L23.0417 22.2965V22.3086L23.0174 22.3208L22.9687 22.3512L22.9079 22.3634L22.8471 22.3573L22.7924 22.333L22.7437 22.2904L22.7194 22.2721Z" fill="#FFB100"/>
<path d="M21.7401 14.3228L21.7522 14.341L21.807 14.5417L21.8496 14.7363L21.8678 14.8337L21.8921 15.004L21.9104 15.2594V15.6912L21.8921 15.9224L21.8617 16.1109L21.8374 16.2386L21.8131 16.342L21.7644 16.5245L21.6975 16.7252L21.6245 16.9199L21.5576 17.0658L21.509 17.1631L21.436 17.303L21.3873 17.3821L21.3204 17.4916L21.2596 17.5828L21.1866 17.6801L21.1744 17.6862L21.1866 17.6619L21.2657 17.5463L21.3326 17.4429L21.4116 17.3091L21.4725 17.1996L21.5394 17.0658L21.6184 16.8894L21.7097 16.6401L21.7583 16.4819L21.8131 16.2691L21.8435 16.1109L21.8739 15.9102L21.8861 15.8068L21.8982 15.527V15.3871L21.8861 15.1134L21.8617 14.9006L21.8313 14.7059L21.7583 14.414L21.7401 14.3532V14.3228Z" fill="#FDFDFD"/>
<path d="M19.6539 18.8904L19.6721 18.8965L19.5627 18.9451L19.3133 19.0364L19.1187 19.0911L18.9423 19.1337L18.7233 19.1702L18.4922 19.2006L18.2672 19.2127H18.0421L17.7745 19.1945L17.4765 19.1519L17.4156 19.1398L17.4217 19.1276L17.7623 19.1762L17.9752 19.1945L18.0847 19.2006H18.255L18.5287 19.1823L18.7537 19.1519L18.924 19.1215L19.1308 19.0728L19.3011 19.0242L19.4228 18.9816L19.6113 18.9086L19.6539 18.8904Z" fill="#FDFDFD"/>
<path d="M21.3021 13.3921L21.3265 13.4225L21.4055 13.5502L21.442 13.611L21.4968 13.7084L21.5637 13.8483L21.6245 13.9821L21.7096 14.2132L21.74 14.2983L21.734 14.3227L21.6306 14.0429L21.588 13.9334L21.5393 13.8361L21.4907 13.7327L21.4359 13.6293L21.3629 13.5077L21.3143 13.4286L21.3021 13.4103V13.3921Z" fill="#FDFDFD"/>
<path d="M21.5516 17.011H21.5638L21.5455 17.0657L21.4543 17.2482L21.357 17.4124L21.2779 17.5401L21.2657 17.5462V17.5097L21.2901 17.4672L21.3083 17.4611L21.3205 17.4246H21.3327L21.3387 17.382H21.3509L21.3631 17.3455H21.3813L21.3935 17.3029H21.4056L21.4178 17.2604L21.436 17.2239L21.4543 17.2056L21.4665 17.1752H21.4786L21.4847 17.1326L21.509 17.0961L21.5516 17.011Z" fill="#619FF1"/>
<path d="M15.3417 17.9478L15.3903 17.9842L15.4572 18.0572L15.512 18.1181L15.585 18.185L15.6275 18.2215L15.6458 18.2519L15.6215 18.2397L15.5728 18.191L15.5241 18.1485L15.4086 18.0329L15.366 17.9842L15.3417 17.9599V17.9478Z" fill="#FDFDFD"/>
<path d="M20.9556 17.9478V17.966L20.9251 18.0025H20.913L20.9008 18.0268L20.8582 18.0755H20.8461L20.8339 18.0998L20.7853 18.1485L20.7366 18.191L20.6758 18.2458L20.6454 18.2701L20.6393 18.2579L20.6879 18.2154L20.7792 18.1302L20.8947 18.0147L20.9373 17.966L20.9556 17.9478Z" fill="#FDFDFD"/>
<path d="M20.1648 12.2729L20.2013 12.2851L20.3047 12.3581L20.3716 12.4068L20.4507 12.4676L20.5054 12.5102L20.4932 12.5162L20.4385 12.4737L20.3412 12.4007L20.2378 12.3277L20.1648 12.279V12.2729Z" fill="#FDFDFD"/>
<path d="M19.9763 12.1697L20.0128 12.1818L20.1223 12.2487L20.2379 12.3217L20.323 12.3826L20.3108 12.3886L20.2196 12.3278L20.1345 12.2731L20.0432 12.2183L19.9763 12.1758V12.1697Z" fill="#619FF1"/>
<path d="M16.7588 18.9331L16.85 18.9635L16.8987 18.9818L16.9534 19V19.0122L16.9108 19.0061L16.7648 18.9514L16.7527 18.9392L16.7588 18.9331Z" fill="#FDFDFD"/>
<path d="M14.5935 16.6704H14.6057L14.63 16.7373L14.6543 16.8103L14.6726 16.859L14.6604 16.865L14.6178 16.7616L14.5935 16.6887V16.6704Z" fill="#FDFDFD"/>
<path d="M14.4719 16.2324H14.4841L14.4902 16.2507L14.5023 16.3237L14.5206 16.3784L14.5145 16.4088L14.5023 16.3906L14.4719 16.2689V16.2324Z" fill="#FDFDFD"/>
<path d="M14.5449 16.4941L14.5571 16.5185L14.5692 16.5732L14.5936 16.634L14.5996 16.6644L14.5875 16.6705L14.5388 16.5246L14.5449 16.4941Z" fill="#FDFDFD"/>
<path d="M21.0955 17.7834V17.8017L21.0408 17.8686L20.986 17.9294L20.9799 17.9416H20.9678L20.9799 17.9173L21.0529 17.8321L21.0955 17.7834Z" fill="#FDFDFD"/>
<path d="M21.6306 16.8408L21.6367 16.8591L21.5698 17.0111L21.5576 16.9868L21.6124 16.8834L21.6306 16.8408Z" fill="#619FF1"/>
<path d="M14.9281 17.3699L14.9524 17.4003L15.0011 17.4854L15.0132 17.5037L15.0071 17.5219L14.9463 17.4246L14.922 17.3881L14.9281 17.3699Z" fill="#FDFDFD"/>
<path d="M19.9946 18.7141L20.0067 18.7202L19.9277 18.7689L19.8608 18.7993L19.8425 18.7932L19.9946 18.7141Z" fill="#619FF1"/>
<path d="M14.4475 16.1047H14.4597L14.4658 16.1291L14.4779 16.196L14.4718 16.2264L14.4597 16.2081L14.4475 16.1412V16.1047Z" fill="#FDFDFD"/>
<path d="M14.8307 17.2178H14.843L14.8982 17.3159L14.8859 17.3282L14.8307 17.23V17.2178Z" fill="#FDFDFD"/>
<path d="M14.5205 16.4028L14.5328 16.4274L14.5451 16.4887L14.5328 16.501L14.5144 16.4396V16.409L14.5205 16.4028Z" fill="#FDFDFD"/>
<path d="M15.2078 17.7896L15.2323 17.8018L15.263 17.8448L15.2568 17.8632L15.2078 17.8018V17.7896Z" fill="#FDFDFD"/>
<path d="M15.1348 17.6924L15.1532 17.6985L15.19 17.7537H15.1716L15.1348 17.7047V17.6924Z" fill="#FDFDFD"/>
</g>
<defs>
<filter id="filter0_d_90_21" x="0" y="0.636719" width="124.822" height="79.0312" filterUnits="userSpaceOnUse" color-interpolation-filters="sRGB">
<feFlood flood-opacity="0" result="BackgroundImageFix"/>
<feColorMatrix in="SourceAlpha" type="matrix" values="0 0 0 0 0 0 0 0 0 0 0 0 0 0 0 0 0 0 127 0" result="hardAlpha"/>
<feOffset dx="5" dy="4"/>
<feGaussianBlur stdDeviation="2"/>
<feComposite in2="hardAlpha" operator="out"/>
<feColorMatrix type="matrix" values="0 0 0 0 0 0 0 0 0 0 0 0 0 0 0 0 0 0 0.25 0"/>
<feBlend mode="normal" in2="BackgroundImageFix" result="effect1_dropShadow_90_21"/>
<feBlend mode="normal" in="SourceGraphic" in2="effect1_dropShadow_90_21" result="shape"/>
</filter>
</defs>
</svg>
